<?xml version="1.0" encoding="UTF-8" standalone="no"?>
<!DOCTYPE svg PUBLIC "-//W3C//DTD SVG 1.1//EN" "http://www.w3.org/Graphics/SVG/1.1/DTD/svg11.dtd">
<svg width="112.901" height="35.101" viewBox="0 0 112.901 35.101" xmlns="http://www.w3.org/2000/svg">
  <g id="svgGroup" stroke-linecap="round" fill-rule="evenodd" font-size="9pt" stroke="#cccccc" stroke-width="0.25mm" fill="#ffffff" style="stroke:#cccccc;stroke-width:0.25mm;fill:#ffffff">
    <path d="M 36.501 31.651 L 36.501 3.001 A 10.68 10.68 0 0 1 36.518 2.373 Q 36.569 1.501 36.776 1.051 A 1.345 1.345 0 0 1 37.329 0.45 Q 37.53 0.331 37.789 0.251 A 2.773 2.773 0 0 1 37.876 0.226 Q 38.514 0.052 39.737 0.012 A 23.817 23.817 0 0 1 40.501 0.001 L 42.551 0.001 Q 50.951 0.001 55.501 2.801 A 10.446 10.446 0 0 1 58.161 5.076 Q 60.051 7.396 60.051 10.651 A 9.285 9.285 0 0 1 56.144 18.314 Q 54.674 19.448 52.651 20.351 Q 57.951 24.551 60.951 30.501 Q 61.201 31.001 61.201 31.651 Q 61.201 32.651 60.526 33.376 A 2.241 2.241 0 0 1 59.052 34.086 A 3.085 3.085 0 0 1 58.751 34.101 A 2.375 2.375 0 0 1 56.872 33.243 A 3.399 3.399 0 0 1 56.551 32.801 A 53.86 53.86 0 0 0 53.779 28.774 Q 48.834 22.301 44.751 22.301 A 18.373 18.373 0 0 0 42.928 22.396 A 23.486 23.486 0 0 0 41.401 22.601 L 41.401 31.651 Q 41.401 32.701 40.676 33.401 Q 39.951 34.101 38.951 34.101 A 2.587 2.587 0 0 1 38.029 33.942 A 2.325 2.325 0 0 1 37.201 33.401 Q 36.501 32.701 36.501 31.651 Z M 27.051 34.751 L 22.401 31.601 A 15.494 15.494 0 0 1 17.688 33.688 A 13.994 13.994 0 0 1 14.301 34.101 Q 10.251 34.101 6.976 31.951 Q 3.701 29.801 1.851 26.201 Q 0.001 22.601 0.001 18.351 Q 0.001 13.451 2.276 9.226 A 18.481 18.481 0 0 1 6.979 3.499 A 17.861 17.861 0 0 1 8.351 2.501 Q 12.151 0.001 16.501 0.001 Q 20.551 0.001 23.826 2.151 Q 27.101 4.301 28.951 7.926 Q 30.801 11.551 30.801 15.801 A 20.07 20.07 0 0 1 30.14 21.009 A 18.239 18.239 0 0 1 29.626 22.626 Q 28.451 25.801 26.201 28.301 L 29.801 30.601 A 2.136 2.136 0 0 1 30.807 32.145 A 3.403 3.403 0 0 1 30.851 32.701 A 2.605 2.605 0 0 1 30.736 33.492 A 2.081 2.081 0 0 1 30.101 34.451 Q 29.351 35.101 28.401 35.101 A 3.05 3.05 0 0 1 27.792 35.043 A 2.175 2.175 0 0 1 27.051 34.751 Z M 87.501 31.751 L 87.501 21.001 L 85.751 21.001 A 2.385 2.385 0 0 1 84.049 20.298 A 3.132 3.132 0 0 1 84.001 20.251 A 2.732 2.732 0 0 1 83.505 19.589 A 2.205 2.205 0 0 1 83.251 18.551 Q 83.251 17.501 84.001 16.776 Q 84.751 16.051 85.751 16.051 L 87.501 16.051 L 87.501 2.501 Q 87.501 1.451 88.226 0.751 Q 88.951 0.051 90.001 0.051 A 35.563 35.563 0 0 1 99.557 1.391 A 39.875 39.875 0 0 1 100.201 1.576 A 19.146 19.146 0 0 1 109.122 7.297 A 26.918 26.918 0 0 1 109.126 7.301 A 13.946 13.946 0 0 1 112.152 12.96 Q 112.749 15.09 112.87 17.63 A 27.723 27.723 0 0 1 112.901 18.951 A 20.98 20.98 0 0 1 112.536 22.972 Q 112.053 25.442 110.934 27.421 A 12.845 12.845 0 0 1 110.601 27.976 Q 108.301 31.601 104.351 33.326 Q 100.401 35.051 95.401 35.051 Q 93.651 35.051 91.851 34.726 A 65.245 65.245 0 0 1 91.07 34.58 Q 90.104 34.394 89.596 34.257 A 5.81 5.81 0 0 1 89.401 34.201 Q 88.601 33.951 88.051 33.251 A 2.672 2.672 0 0 1 87.651 32.561 A 2.236 2.236 0 0 1 87.501 31.751 Z M 17.701 28.601 L 15.701 27.251 Q 15.051 26.801 14.826 26.326 Q 14.604 25.858 14.601 25.219 A 3.727 3.727 0 0 1 14.601 25.201 Q 14.601 24.151 15.326 23.451 A 2.54 2.54 0 0 1 16.081 22.937 A 2.291 2.291 0 0 1 17.001 22.751 Q 17.901 22.751 18.601 23.251 L 22.001 25.501 A 15.169 15.169 0 0 0 24.458 21.564 A 17.266 17.266 0 0 0 24.651 21.101 Q 25.651 18.601 25.651 15.951 Q 25.651 13.101 24.401 10.551 A 11.11 11.11 0 0 0 21.821 7.106 A 10.657 10.657 0 0 0 20.976 6.426 Q 18.801 4.851 16.151 4.851 A 8.991 8.991 0 0 0 11.474 6.18 A 11.259 11.259 0 0 0 10.751 6.651 Q 8.201 8.451 6.676 11.501 A 14.635 14.635 0 0 0 5.151 18.038 A 16.932 16.932 0 0 0 5.151 18.151 A 13.801 13.801 0 0 0 5.681 22.024 A 12.391 12.391 0 0 0 6.326 23.751 A 10.454 10.454 0 0 0 8.046 26.399 A 9.23 9.23 0 0 0 9.601 27.776 Q 11.701 29.251 14.301 29.251 A 9.359 9.359 0 0 0 17.382 28.717 A 10.722 10.722 0 0 0 17.701 28.601 Z M 92.501 5.151 L 92.501 16.051 L 96.001 16.051 Q 97.001 16.051 97.751 16.776 A 2.367 2.367 0 0 1 98.5 18.486 A 2.898 2.898 0 0 1 98.501 18.551 A 2.307 2.307 0 0 1 97.797 20.23 A 2.981 2.981 0 0 1 97.751 20.276 Q 97.001 21.001 96.001 21.001 L 92.501 21.001 L 92.501 29.751 A 23.804 23.804 0 0 0 93.705 29.934 Q 94.651 30.051 95.401 30.051 A 19.573 19.573 0 0 0 99.046 29.732 Q 102.368 29.102 104.576 27.226 A 9.089 9.089 0 0 0 107.534 22.281 Q 107.901 20.76 107.901 18.951 A 16.872 16.872 0 0 0 107.488 15.098 Q 106.822 12.255 105.078 10.286 A 10.273 10.273 0 0 0 103.676 8.976 A 16.962 16.962 0 0 0 98.506 6.294 Q 96.318 5.578 93.721 5.271 A 31.609 31.609 0 0 0 92.501 5.151 Z M 42.401 4.801 L 41.401 4.801 L 41.401 18.001 Q 46.801 17.651 50.951 15.801 Q 53.277 14.764 54.299 13.271 A 4.532 4.532 0 0 0 55.101 10.651 Q 55.101 7.851 51.892 6.354 A 10.062 10.062 0 0 0 51.776 6.301 A 14.02 14.02 0 0 0 49.168 5.447 Q 46.551 4.842 42.908 4.803 A 47.423 47.423 0 0 0 42.401 4.801 Z M 66.501 19.251 L 77.751 19.251 Q 78.751 19.251 79.426 19.926 Q 80.101 20.601 80.101 21.601 A 2.252 2.252 0 0 1 79.422 23.229 A 2.9 2.9 0 0 1 79.401 23.251 A 2.402 2.402 0 0 1 78.625 23.781 A 2.251 2.251 0 0 1 77.751 23.951 L 66.501 23.951 A 2.204 2.204 0 0 1 65.118 23.462 A 2.986 2.986 0 0 1 64.876 23.251 A 2.432 2.432 0 0 1 64.357 22.543 A 2.174 2.174 0 0 1 64.151 21.601 A 2.206 2.206 0 0 1 64.826 20 A 2.919 2.919 0 0 1 64.876 19.951 Q 65.601 19.251 66.501 19.251 Z" vector-effect="non-scaling-stroke"/>
  </g>
</svg>