<?xml version="1.0" encoding="utf-8" standalone="no"?>
<!DOCTYPE svg PUBLIC "-//W3C//DTD SVG 1.1//EN" "http://www.w3.org/Graphics/SVG/1.1/DTD/svg11.dtd">
<svg width="382.801" height="85.002" viewBox="0 0 382.801 85.002" xmlns="http://www.w3.org/2000/svg">
  <g id="svgGroup" stroke-linecap="round" fill-rule="evenodd" font-size="9pt" stroke="#cccccc" stroke-width="0.25mm" fill="#ffffff" style="stroke:#cccccc;stroke-width:0.25mm;fill:#ffffff">
    <path d="M 73.001 63.302 L 73.001 6.002 Q 73.001 3.302 73.551 2.102 A 2.689 2.689 0 0 1 74.659 0.9 Q 75.061 0.661 75.579 0.502 A 5.547 5.547 0 0 1 75.751 0.452 Q 77.401 0.002 81.001 0.002 L 85.101 0.002 A 81.115 81.115 0 0 1 94.793 0.542 Q 99.45 1.104 103.302 2.251 A 32.107 32.107 0 0 1 111.001 5.602 Q 119.987 11.131 120.1 21.048 A 22.234 22.234 0 0 1 120.101 21.302 Q 120.101 33.992 105.553 40.588 A 44.538 44.538 0 0 1 105.301 40.702 Q 115.901 49.102 121.901 61.002 A 4.692 4.692 0 0 1 122.342 62.443 A 6.035 6.035 0 0 1 122.401 63.302 Q 122.401 65.302 121.051 66.752 A 4.482 4.482 0 0 1 118.103 68.173 A 6.17 6.17 0 0 1 117.501 68.202 A 4.751 4.751 0 0 1 113.744 66.485 A 6.797 6.797 0 0 1 113.101 65.602 A 107.72 107.72 0 0 0 107.559 57.548 Q 97.924 44.938 89.927 44.61 A 10.394 10.394 0 0 0 89.501 44.602 Q 86.401 44.602 82.801 45.202 L 82.801 63.302 A 4.987 4.987 0 0 1 82.445 65.213 A 4.651 4.651 0 0 1 81.351 66.802 Q 79.901 68.202 77.901 68.202 A 5.175 5.175 0 0 1 76.059 67.884 A 4.651 4.651 0 0 1 74.401 66.802 A 4.723 4.723 0 0 1 73.003 63.436 A 6.2 6.2 0 0 1 73.001 63.302 Z M 316.601 65.102 L 316.801 62.702 A 10.318 10.318 0 0 1 312.475 66.079 A 12.258 12.258 0 0 1 312.301 66.152 A 15.588 15.588 0 0 1 306.501 67.301 A 17.709 17.709 0 0 1 306.301 67.302 Q 301.001 67.302 296.351 64.652 A 19.227 19.227 0 0 1 289.489 57.953 A 23.245 23.245 0 0 1 288.901 56.952 A 22.054 22.054 0 0 1 286.44 49.618 A 29.066 29.066 0 0 1 286.101 45.102 Q 286.101 38.002 289.251 31.802 Q 292.401 25.602 297.851 21.902 Q 303.301 18.202 309.901 18.202 A 18.186 18.186 0 0 1 313.439 18.571 Q 315.124 18.906 316.96 19.543 A 34.013 34.013 0 0 1 318.201 20.002 Q 318.934 17.437 322.183 17.221 A 9.335 9.335 0 0 1 322.801 17.202 A 6.281 6.281 0 0 1 324.37 17.388 A 4.642 4.642 0 0 1 326.251 18.352 A 3.304 3.304 0 0 1 327.232 19.844 Q 327.552 20.788 327.501 22.102 L 326.501 64.302 Q 326.301 74.602 320.601 79.802 Q 314.901 85.002 305.601 85.002 A 51.506 51.506 0 0 1 294.551 83.771 A 57.161 57.161 0 0 1 293.801 83.602 Q 292.201 83.202 291.151 81.902 Q 290.101 80.602 290.101 78.902 Q 290.101 76.902 291.551 75.502 A 5.08 5.08 0 0 1 293.062 74.474 A 4.582 4.582 0 0 1 294.901 74.102 A 7.782 7.782 0 0 1 295.73 74.15 Q 296.586 74.243 297.722 74.51 A 27.402 27.402 0 0 1 298.101 74.602 Q 298.444 74.687 300.031 74.956 A 230.084 230.084 0 0 0 300.601 75.052 Q 302.701 75.402 305.501 75.402 A 15.036 15.036 0 0 0 309.808 74.836 Q 314.637 73.392 316.067 68.263 A 16.546 16.546 0 0 0 316.601 65.102 Z M 54.101 69.502 L 44.801 63.202 A 30.989 30.989 0 0 1 35.376 67.376 A 27.988 27.988 0 0 1 28.601 68.202 Q 20.501 68.202 13.951 63.902 Q 7.401 59.602 3.701 52.402 Q 0.001 45.202 0.001 36.702 Q 0.001 26.902 4.551 18.452 A 36.962 36.962 0 0 1 13.959 6.998 A 35.723 35.723 0 0 1 16.701 5.002 Q 24.301 0.002 33.001 0.002 Q 41.101 0.002 47.651 4.302 Q 54.201 8.602 57.901 15.852 Q 61.601 23.102 61.601 31.602 Q 61.601 38.902 59.251 45.252 Q 56.901 51.602 52.401 56.602 L 59.601 61.202 A 4.272 4.272 0 0 1 61.615 64.29 A 6.805 6.805 0 0 1 61.701 65.402 A 5.211 5.211 0 0 1 61.473 66.983 A 4.162 4.162 0 0 1 60.201 68.902 Q 58.701 70.202 56.801 70.202 A 6.099 6.099 0 0 1 55.584 70.086 A 4.35 4.35 0 0 1 54.101 69.502 Z M 175.001 63.502 L 175.001 42.002 L 171.501 42.002 Q 169.501 42.002 168.001 40.502 A 5.464 5.464 0 0 1 167.01 39.178 A 4.41 4.41 0 0 1 166.501 37.102 A 4.737 4.737 0 0 1 167.909 33.643 A 5.686 5.686 0 0 1 168.001 33.552 Q 169.501 32.102 171.501 32.102 L 175.001 32.102 L 175.001 5.002 A 4.987 4.987 0 0 1 175.358 3.09 A 4.651 4.651 0 0 1 176.451 1.502 Q 177.901 0.102 180.001 0.102 A 71.126 71.126 0 0 1 199.115 2.782 A 79.747 79.747 0 0 1 200.401 3.152 A 38.292 38.292 0 0 1 218.244 14.593 A 43.53 43.53 0 0 1 218.251 14.602 A 27.891 27.891 0 0 1 224.304 25.92 Q 225.497 30.181 225.74 35.259 A 55.446 55.446 0 0 1 225.801 37.902 A 41.959 41.959 0 0 1 225.071 45.944 Q 224.106 50.885 221.867 54.841 A 25.69 25.69 0 0 1 221.201 55.952 Q 216.601 63.202 208.701 66.652 A 41.009 41.009 0 0 1 197.428 69.694 A 52.251 52.251 0 0 1 190.801 70.102 Q 187.301 70.102 183.701 69.452 A 130.496 130.496 0 0 1 182.14 69.161 Q 180.209 68.787 179.193 68.514 A 11.62 11.62 0 0 1 178.801 68.402 A 5.421 5.421 0 0 1 176.188 66.61 A 6.593 6.593 0 0 1 176.101 66.502 A 5.344 5.344 0 0 1 175.303 65.122 A 4.471 4.471 0 0 1 175.001 63.502 Z M 378.801 37.302 L 352.001 52.702 A 9.213 9.213 0 0 0 355.299 56.556 A 12.518 12.518 0 0 0 356.951 57.502 A 17.393 17.393 0 0 0 362.755 59.095 A 21.255 21.255 0 0 0 364.901 59.202 A 13.131 13.131 0 0 0 374.527 55.182 A 16.551 16.551 0 0 0 374.801 54.902 A 6.807 6.807 0 0 1 375.856 54.028 Q 376.956 53.302 378.101 53.302 A 5.067 5.067 0 0 1 379.873 53.602 A 4.52 4.52 0 0 1 381.451 54.602 Q 382.801 55.902 382.801 57.802 A 4.277 4.277 0 0 1 382.112 60.112 A 5.804 5.804 0 0 1 381.601 60.802 Q 378.801 63.902 374.151 66.052 A 23.514 23.514 0 0 1 368.647 67.847 A 20.125 20.125 0 0 1 364.901 68.202 Q 357.801 68.202 352.151 65.152 Q 346.501 62.102 343.301 56.452 A 24.277 24.277 0 0 1 340.515 48.371 A 32.323 32.323 0 0 1 340.101 43.102 Q 340.101 36.802 342.951 31.052 Q 345.801 25.302 350.951 21.802 Q 356.101 18.302 362.701 18.302 A 25.385 25.385 0 0 1 367.699 18.77 A 18.413 18.413 0 0 1 373.151 20.752 A 22.161 22.161 0 0 1 376.544 23.076 A 15.898 15.898 0 0 1 379.701 26.602 A 18.155 18.155 0 0 1 380.862 28.658 Q 381.901 30.845 381.901 32.702 A 4.301 4.301 0 0 1 381.363 34.767 A 5.408 5.408 0 0 1 381.101 35.202 A 6.252 6.252 0 0 1 379.942 36.489 A 8.485 8.485 0 0 1 378.801 37.302 Z M 35.401 57.202 L 31.401 54.502 A 7.788 7.788 0 0 1 30.672 53.934 Q 30.316 53.619 30.061 53.299 A 3.341 3.341 0 0 1 29.651 52.652 A 4.514 4.514 0 0 1 29.294 51.508 Q 29.201 50.991 29.201 50.402 A 4.987 4.987 0 0 1 29.558 48.49 A 4.651 4.651 0 0 1 30.651 46.902 A 5.08 5.08 0 0 1 32.162 45.874 A 4.582 4.582 0 0 1 34.001 45.502 Q 35.801 45.502 37.201 46.502 L 44.001 51.002 A 30.338 30.338 0 0 0 48.915 43.129 A 34.531 34.531 0 0 0 49.301 42.202 Q 51.301 37.202 51.301 31.902 Q 51.301 26.202 48.801 21.102 A 22.22 22.22 0 0 0 43.642 14.212 A 21.315 21.315 0 0 0 41.951 12.852 Q 37.601 9.702 32.301 9.702 Q 26.601 9.702 21.501 13.302 A 25.04 25.04 0 0 0 14.355 21.156 A 30.17 30.17 0 0 0 13.351 23.002 A 29.27 29.27 0 0 0 10.302 36.077 A 33.883 33.883 0 0 0 10.301 36.302 A 27.603 27.603 0 0 0 11.362 44.047 A 24.782 24.782 0 0 0 12.651 47.502 Q 15.001 52.602 19.201 55.552 Q 23.401 58.502 28.601 58.502 A 18.719 18.719 0 0 0 34.764 57.434 A 21.443 21.443 0 0 0 35.401 57.202 Z M 185.001 10.302 L 185.001 32.102 L 192.001 32.102 Q 194.001 32.102 195.501 33.552 A 4.734 4.734 0 0 1 197 36.971 A 5.797 5.797 0 0 1 197.001 37.102 A 4.614 4.614 0 0 1 195.594 40.46 A 5.96 5.96 0 0 1 195.501 40.552 Q 194.001 42.002 192.001 42.002 L 185.001 42.002 L 185.001 59.502 Q 187.571 59.955 189.57 60.066 A 22.3 22.3 0 0 0 190.801 60.102 A 39.145 39.145 0 0 0 198.092 59.464 Q 202.244 58.676 205.526 56.915 A 20.679 20.679 0 0 0 209.151 54.452 A 18.177 18.177 0 0 0 215.068 44.561 Q 215.801 41.521 215.801 37.902 A 33.744 33.744 0 0 0 214.976 30.196 Q 213.643 24.511 210.156 20.572 A 20.546 20.546 0 0 0 207.351 17.952 A 33.924 33.924 0 0 0 197.012 12.588 Q 191.626 10.826 185.001 10.302 Z M 254.201 68.202 Q 248.501 68.202 243.751 65.102 A 21.267 21.267 0 0 1 236.472 56.984 A 25.045 25.045 0 0 1 236.301 56.652 Q 233.601 51.302 233.601 45.002 Q 233.601 37.902 236.801 31.752 A 26.805 26.805 0 0 1 242.688 24.067 A 25.266 25.266 0 0 1 245.401 21.952 A 20.823 20.823 0 0 1 253.391 18.623 A 20.153 20.153 0 0 1 257.001 18.302 Q 262.701 18.302 267.451 21.502 Q 272.201 24.702 274.951 30.002 Q 277.701 35.302 277.701 41.402 Q 277.701 48.602 274.501 54.752 A 26.433 26.433 0 0 1 268.128 62.835 A 25.372 25.372 0 0 1 265.851 64.552 A 21.242 21.242 0 0 1 258.282 67.79 A 20.16 20.16 0 0 1 254.201 68.202 Z M 84.801 9.602 L 82.801 9.602 L 82.801 36.002 Q 93.601 35.302 101.901 31.602 Q 106.554 29.528 108.599 26.542 A 9.063 9.063 0 0 0 110.201 21.302 A 8.311 8.311 0 0 0 106.766 14.503 Q 105.422 13.445 103.551 12.602 Q 96.901 9.602 84.801 9.602 Z M 254.201 59.202 A 10.432 10.432 0 0 0 259.334 57.823 A 13.738 13.738 0 0 0 260.901 56.802 A 16.306 16.306 0 0 0 265.176 51.961 A 19.881 19.881 0 0 0 266.001 50.402 Q 267.901 46.402 267.901 41.902 Q 267.901 38.102 266.401 34.752 A 15.093 15.093 0 0 0 264.299 31.313 A 13.003 13.003 0 0 0 262.301 29.352 A 9.591 9.591 0 0 0 259.308 27.723 A 8.744 8.744 0 0 0 256.601 27.302 A 9.903 9.903 0 0 0 251.162 28.95 A 12.916 12.916 0 0 0 250.051 29.752 A 16.111 16.111 0 0 0 246.313 34.1 A 20.107 20.107 0 0 0 245.201 36.252 Q 243.401 40.302 243.401 44.902 A 21.85 21.85 0 0 0 243.677 48.467 Q 244.055 50.752 244.951 52.602 A 14.541 14.541 0 0 0 246.541 55.194 A 10.976 10.976 0 0 0 248.951 57.502 A 9.45 9.45 0 0 0 252.109 58.952 A 8.792 8.792 0 0 0 254.201 59.202 Z M 317.401 41.702 L 317.401 29.602 Q 316.001 28.802 314.051 28.302 A 16 16 0 0 0 311.557 27.861 A 13.576 13.576 0 0 0 310.301 27.802 Q 306.201 27.802 302.751 29.952 A 15.458 15.458 0 0 0 297.447 35.549 A 18.267 18.267 0 0 0 297.251 35.902 A 17.25 17.25 0 0 0 295.242 43.098 A 20.727 20.727 0 0 0 295.201 44.402 A 19.889 19.889 0 0 0 295.595 48.476 Q 296.144 51.097 297.456 53.117 A 11.873 11.873 0 0 0 298.251 54.202 A 10.919 10.919 0 0 0 300.84 56.528 A 8.93 8.93 0 0 0 305.701 57.902 A 12.255 12.255 0 0 0 309.561 57.323 A 9.854 9.854 0 0 0 314.301 53.952 Q 317.28 50.157 317.397 42.346 A 43.092 43.092 0 0 0 317.401 41.702 Z M 133.001 38.502 L 155.501 38.502 Q 157.501 38.502 158.851 39.852 Q 160.201 41.202 160.201 43.202 A 4.504 4.504 0 0 1 158.845 46.458 A 5.79 5.79 0 0 1 158.801 46.502 Q 157.401 47.902 155.501 47.902 L 133.001 47.902 A 4.408 4.408 0 0 1 130.237 46.923 A 5.971 5.971 0 0 1 129.751 46.502 A 4.863 4.863 0 0 1 128.714 45.086 A 4.347 4.347 0 0 1 128.301 43.202 A 4.413 4.413 0 0 1 129.651 40.001 A 5.837 5.837 0 0 1 129.751 39.902 A 5.316 5.316 0 0 1 131.037 38.97 A 4.287 4.287 0 0 1 133.001 38.502 Z M 349.201 44.402 L 372.001 31.502 Q 370.801 29.402 368.601 28.352 A 10.441 10.441 0 0 0 365.878 27.504 A 14.467 14.467 0 0 0 363.401 27.302 A 13.696 13.696 0 0 0 358.089 28.307 A 12.875 12.875 0 0 0 353.851 31.202 Q 350.001 35.102 349.401 40.802 Q 349.201 42.302 349.201 44.402 Z" vector-effect="non-scaling-stroke"/>
  </g>
</svg>